<?xml version="1.0" encoding="UTF-8" standalone="no"?>
<!-- Created with Inkscape (http://www.inkscape.org/) -->

<svg
   width="106.18235mm"
   height="135.64938mm"
   viewBox="0 0 106.18235 135.64938"
   version="1.1"
   id="svg1"
   xml:space="preserve"
   xmlns:inkscape="http://www.inkscape.org/namespaces/inkscape"
   xmlns:sodipodi="http://sodipodi.sourceforge.net/DTD/sodipodi-0.dtd"
   xmlns="http://www.w3.org/2000/svg"
   xmlns:svg="http://www.w3.org/2000/svg"><sodipodi:namedview
     id="namedview1"
     pagecolor="#ffffff"
     bordercolor="#000000"
     borderopacity="0.25"
     inkscape:showpageshadow="2"
     inkscape:pageopacity="0.0"
     inkscape:pagecheckerboard="0"
     inkscape:deskcolor="#d1d1d1"
     inkscape:document-units="mm" /><defs
     id="defs1" /><g
     inkscape:label="Layer 1"
     inkscape:groupmode="layer"
     id="layer1"
     transform="translate(-51.757813,-80.761368)"><path
       style="fill:#000000;stroke:none"
       d="m 103.00276,80.879163 c -3.494178,0.475633 -6.859396,1.391081 -9.789587,3.443459 -2.391254,1.67489 -4.46255,3.713945 -5.965579,6.233631 -7.002815,11.739537 -1.072383,27.345317 12.315579,30.915217 2.577877,0.68739 5.550537,0.8382 8.202087,0.49364 2.87835,-0.37404 5.76547,-1.45218 8.20208,-3.01862 12.45071,-8.00429 12.66217,-26.992874 0,-34.944181 -1.95033,-1.224723 -4.09344,-2.170741 -6.35,-2.650734 -2.15729,-0.458879 -4.41494,-0.771828 -6.61458,-0.472412 m -0.52917,4.197402 c 2.13439,-0.278051 4.54049,-0.189572 6.61458,0.385232 10.97186,3.040689 15.67197,16.102453 9.34739,25.467373 -1.15416,1.70899 -2.58816,3.14392 -4.3203,4.26905 -2.45534,1.59489 -5.04203,2.44335 -7.9375,2.79895 -1.68967,0.20751 -3.37234,-0.0655 -5.02709,-0.40238 -1.781845,-0.36274 -3.475116,-1.08049 -5.02708,-2.02582 -10.290953,-6.26843 -10.157305,-21.85276 0,-28.170365 1.89818,-1.180621 4.12633,-2.032361 6.35,-2.32204 m 10.58333,9.360653 c -1.18202,0.333635 -2.07204,1.370644 -2.91041,2.204653 l -4.23334,4.233129 c -0.63986,0.63979 -1.46717,1.82192 -2.38125,2.06196 -0.85417,0.2243 -1.58858,-0.74779 -2.11666,-1.26861 -1.31888,-1.30073 -4.516927,-5.855143 -6.706458,-3.781343 -1.007299,0.954052 -0.615022,2.313833 0.1523,3.252583 1.698746,2.07827 3.832797,3.94963 5.760408,5.81674 0.94959,0.9198 2.01846,1.86142 3.43958,1.4546 1.48922,-0.42632 2.65267,-1.98658 3.70417,-3.03801 2.35081,-2.35066 5.35228,-4.66329 7.23562,-7.408334 1.09598,-1.59744 0.38722,-4.185355 -1.94396,-3.527368 m -46.566458,9.256332 c -2.449998,0.76805 -2.909928,4.06153 -3.616175,6.17729 -0.241176,0.7225 -0.421793,1.694 -1.016892,2.2216 -0.650527,0.57674 -1.709286,0.42387 -2.510887,0.42423 -2.356168,10e-4 -5.949299,-0.7266 -7.204996,1.85617 -1.587573,3.26537 2.126588,5.25026 4.29458,6.83506 0.643676,0.47053 1.691079,0.98939 1.97233,1.79044 0.277004,0.78895 -0.402299,2.0062 -0.649414,2.74749 -0.515835,1.54741 -1.44854,3.36184 -1.269223,5.02709 0.27231,2.52883 3.078405,3.75462 5.237973,2.63277 1.421657,-0.73852 2.66907,-1.85799 3.96875,-2.78486 0.602868,-0.42994 1.319461,-1.06334 2.116667,-0.91095 2.931882,0.56048 4.787074,5.05352 8.202083,4.02429 4.089466,-1.2325 2.15311,-5.4974 1.234723,-8.25292 -0.232592,-0.69786 -0.822741,-1.77808 -0.561218,-2.52293 0.274377,-0.78147 1.344447,-1.2922 1.972328,-1.75042 2.238005,-1.63325 6.348853,-4.05055 4.000801,-7.34055 -1.437961,-2.01481 -4.764111,-1.34971 -6.911218,-1.35068 -0.813423,-3.6e-4 -1.86438,0.14639 -2.532121,-0.42423 -0.619612,-0.5295 -0.761815,-1.48468 -0.998513,-2.2216 -0.852956,-2.65553 -1.85604,-7.39161 -5.729578,-6.17729 m 74.612498,0 c -2.4333,0.76281 -2.93395,4.06218 -3.61332,6.17729 -0.23672,0.73694 -0.37889,1.69209 -0.99851,2.2216 -0.66775,0.57063 -1.71869,0.42387 -2.53213,0.42423 -2.39446,10e-4 -5.90616,-0.71361 -7.22623,1.85617 -1.64762,3.20744 2.20596,5.29275 4.31582,6.83506 0.64367,0.47052 1.69108,0.98939 1.97233,1.79044 0.27699,0.78893 -0.40231,2.00621 -0.64942,2.74749 -0.51582,1.5474 -1.44854,3.36185 -1.26922,5.02709 0.27232,2.52883 3.07839,3.75463 5.23797,2.63277 1.42166,-0.73852 2.66908,-1.85799 3.96875,-2.78486 0.60287,-0.42994 1.31947,-1.06334 2.11667,-0.91095 2.95155,0.56424 4.76528,5.02459 8.20188,4.02531 4.09649,-1.19117 2.15476,-5.49406 1.23492,-8.25394 -0.23259,-0.69786 -0.82273,-1.77809 -0.56121,-2.52293 0.27438,-0.78147 1.34443,-1.29219 1.97233,-1.75042 1.82251,-1.33003 4.85514,-2.84638 4.65736,-5.51623 -0.28988,-3.91301 -4.82609,-3.17377 -7.56778,-3.175 -0.81344,-3.6e-4 -1.86438,0.14639 -2.53212,-0.42423 -0.61963,-0.52951 -0.7618,-1.48466 -0.99851,-2.2216 -0.5113,-1.59183 -0.89362,-3.66072 -1.93273,-4.99932 -0.88228,-1.13656 -2.42079,-1.60936 -3.79685,-1.17797 m -73.554369,5.9127 c 1.10116,1.7499 1.051085,4.20578 2.485368,5.76428 1.688699,1.83495 5.31422,1.11489 7.568798,1.11489 -1.562796,1.91983 -4.888372,2.90084 -5.404563,5.55625 -0.396746,2.04096 1.256706,4.29851 1.435814,6.35 -1.988126,-1.10797 -4.146168,-3.76516 -6.614583,-3.37916 -2.190209,0.3425 -3.764659,2.59959 -5.820833,3.37916 0.690239,-2.1213 2.53334,-5.25701 1.299234,-7.40732 -1.12846,-1.96623 -3.592957,-2.76626 -5.003401,-4.49893 2.254578,0 5.880102,0.72006 7.568798,-1.11489 1.434274,-1.55849 1.384212,-4.01438 2.485368,-5.76428 m 74.612499,0 c 1.10116,1.7499 1.05109,4.20578 2.48537,5.76428 1.68869,1.83495 5.31422,1.11489 7.56879,1.11489 -1.56279,1.91982 -4.88837,2.90085 -5.40456,5.55625 -0.39675,2.04095 1.2567,4.29852 1.43581,6.35 -1.98812,-1.10796 -4.14617,-3.76516 -6.61458,-3.37916 -2.19022,0.3425 -3.76465,2.59958 -5.82083,3.37916 0.69024,-2.1213 2.53334,-5.25701 1.29923,-7.40732 -1.12846,-1.96623 -3.59296,-2.76627 -5.0034,-4.49893 2.25459,0 5.8801,0.72007 7.5688,-1.11489 1.43428,-1.5585 1.38421,-4.01438 2.48537,-5.76428 m -39.15833,28.68831 c -2.56735,0.36779 -5.030793,1.23654 -7.143754,2.77791 -10.152048,7.40579 -6.701548,24.08548 5.556254,26.83071 1.65206,0.37 3.34244,0.56861 5.02708,0.32727 3.03505,-0.43481 5.81591,-1.48392 8.20188,-3.44919 1.36875,-1.1274 2.50405,-2.55749 3.3569,-4.11043 5.75349,-10.47633 -2.80412,-24.12318 -14.99836,-22.37627 m 0,4.19944 c 1.71805,-0.24768 3.64103,-0.15737 5.29166,0.3834 1.44098,0.47208 2.82656,1.25207 3.95834,2.26264 6.75813,6.03433 3.03113,17.61691 -5.81042,18.89096 -1.48511,0.214 -3.05804,0.10733 -4.49792,-0.29847 -8.960169,-2.52523 -10.946482,-15.17351 -2.64583,-19.90561 1.13862,-0.64912 2.40206,-1.14521 3.70417,-1.33292 m -30.427086,2.68932 c -6.192243,1.11448 -9.69968,7.45016 -7.739062,13.37085 1.310749,3.9582 4.30568,7.78856 6.413287,11.37708 4.034888,6.87 8.070736,13.74163 12.061408,20.6375 1.358384,2.34729 1.170617,4.50764 1.170617,7.14375 v 10.05416 c 0,1.88093 -0.298638,4.07203 0.542433,5.81982 1.587738,3.29941 5.699203,2.64685 8.717983,2.64685 h 18.52083 c 2.9339,0 6.39804,0.50107 9.26042,-0.18088 3.33629,-0.79487 3.70416,-3.79607 3.70416,-6.69829 v -10.58333 c 0,-1.81626 -0.19173,-3.75348 0.0351,-5.55625 0.16931,-1.34551 1.08562,-2.56527 1.76389,-3.70417 1.14864,-1.92871 2.24331,-3.88963 3.38773,-5.82083 4.00983,-6.76658 7.89642,-13.60634 11.90625,-20.37291 1.048,-1.76851 2.24363,-3.54594 2.77077,-5.55625 0.96018,-3.66176 -0.19762,-8.01907 -3.19888,-10.40348 -3.95202,-3.13975 -9.72002,-3.04353 -13.46518,0.42893 -1.78865,1.65842 -2.89521,4.18462 -4.10573,6.27038 -2.20532,3.79982 -4.44927,7.57727 -6.6546,11.37708 -1.07079,1.845 -2.09297,4.53755 -3.65496,6.00028 -1.06424,0.99663 -2.87358,0.17502 -4.13024,-0.0233 -3.03315,-0.47862 -5.95273,-0.48572 -8.99583,-0.1429 -1.278685,0.14405 -3.253589,0.98277 -4.486483,0.59694 -0.861979,-0.26975 -1.326381,-1.20945 -1.751028,-1.93313 l -2.761181,-4.7625 c -2.173123,-3.70007 -4.345507,-7.40123 -6.499441,-11.1125 -1.119618,-1.92913 -2.138137,-4.12908 -3.638021,-5.79695 -2.212954,-2.46081 -5.936204,-3.65877 -9.174262,-3.07598 m 0.264584,4.1976 c 4.741171,-0.85421 6.59935,2.77225 8.678168,6.26283 2.875704,4.82865 5.670668,9.70596 8.516889,14.55208 1.230339,2.09484 2.312666,4.88481 4.765358,5.78552 2.440355,0.89618 5.414597,-0.69274 7.937497,-0.75456 2.30555,-0.0565 4.60392,-0.0684 6.87917,0.32685 1.62798,0.28285 3.37972,1.01034 5.02708,0.5159 2.17207,-0.65192 3.22005,-2.71694 4.27294,-4.55079 1.98159,-3.45141 4.02479,-6.86724 6.00621,-10.31875 1.27403,-2.21929 2.61164,-4.40149 3.89607,-6.61458 0.75848,-1.30688 1.43468,-2.79996 2.57315,-3.8287 2.00424,-1.81107 5.4032,-2.05177 7.58268,-0.42077 4.92974,3.68916 0.76629,9.13685 -1.4646,12.98072 l -11.86623,20.37291 c -1.65956,2.85946 -4.48479,6.11533 -4.6398,9.525 -0.21558,4.74188 -0.0104,9.54035 -0.0104,14.2875 0,1.10547 0.54413,4.00497 -0.83294,4.41381 -2.12087,0.62965 -5.15801,0.0841 -7.36914,0.0841 H 96.388173 91.096507 c -0.640227,-10e-4 -1.655027,0.14935 -2.109315,-0.42423 -0.803698,-1.01476 -0.271935,-3.88705 -0.271935,-5.13202 0,-4.51037 0.44151,-9.27532 -0.04594,-13.75834 -0.215733,-1.98406 -1.447965,-3.60479 -2.409627,-5.29166 -1.923938,-3.37481 -3.948741,-6.69414 -5.89882,-10.05417 -2.663686,-4.58958 -5.368232,-9.15623 -8.010178,-13.75833 -1.182635,-2.06008 -2.73225,-4.11532 -3.555746,-6.35 -1.163059,-3.15614 0.498357,-7.21128 4.045308,-7.85033 z"
       id="path4" /></g></svg>
