<?xml version="1.0" encoding="UTF-8" standalone="no"?>
<svg
   id="Outline"
   viewBox="0 0 24 24"
   width="512"
   height="512"
   version="1.1"
   sodipodi:docname="plus.svg"
   inkscape:version="1.2 (dc2aedaf03, 2022-05-15)"
   xmlns:inkscape="http://www.inkscape.org/namespaces/inkscape"
   xmlns:sodipodi="http://sodipodi.sourceforge.net/DTD/sodipodi-0.dtd"
   xmlns="http://www.w3.org/2000/svg"
   xmlns:svg="http://www.w3.org/2000/svg">
  <defs
     id="defs187" />
  <sodipodi:namedview
     id="namedview185"
     pagecolor="#ffffff"
     bordercolor="#000000"
     borderopacity="0.25"
     inkscape:showpageshadow="2"
     inkscape:pageopacity="0.0"
     inkscape:pagecheckerboard="0"
     inkscape:deskcolor="#d1d1d1"
     showgrid="false"
     inkscape:zoom="0.59662135"
     inkscape:cx="-315.10773"
     inkscape:cy="-5.8663674"
     inkscape:window-width="1920"
     inkscape:window-height="1051"
     inkscape:window-x="-9"
     inkscape:window-y="-9"
     inkscape:window-maximized="1"
     inkscape:current-layer="Outline" />
  <path
     d="M23,11H13V1a1,1,0,0,0-1-1h0a1,1,0,0,0-1,1V11H1a1,1,0,0,0-1,1H0a1,1,0,0,0,1,1H11V23a1,1,0,0,0,1,1h0a1,1,0,0,0,1-1V13H23a1,1,0,0,0,1-1h0A1,1,0,0,0,23,11Z"
     id="path182"
     style="fill:#d4d4d4;fill-opacity:1" />
</svg>
